<mxfile host="app.diagrams.net" agent="Mozilla/5.0 (Windows NT 10.0; Win64; x64) AppleWebKit/537.36 (KHTML, like Gecko) Chrome/131.0.0.0 Safari/537.36" version="26.0.2">
  <diagram name="Page-1" id="yFOiurOK4Uke-wRmQORI">
    <mxGraphModel dx="934" dy="539" grid="1" gridSize="10" guides="1" tooltips="1" connect="1" arrows="1" fold="1" page="1" pageScale="1" pageWidth="850" pageHeight="1100" math="0" shadow="0">
      <root>
        <mxCell id="0" />
        <mxCell id="1" parent="0" />
        <mxCell id="wW48plRAwnufyFm_BIL5-9" style="edgeStyle=orthogonalEdgeStyle;rounded=0;orthogonalLoop=1;jettySize=auto;html=1;entryX=0.5;entryY=0;entryDx=0;entryDy=0;" edge="1" parent="1" source="wW48plRAwnufyFm_BIL5-1" target="wW48plRAwnufyFm_BIL5-3">
          <mxGeometry relative="1" as="geometry" />
        </mxCell>
        <mxCell id="wW48plRAwnufyFm_BIL5-1" value="Begin" style="ellipse;whiteSpace=wrap;html=1;fillColor=#f8cecc;strokeColor=#b85450;" vertex="1" parent="1">
          <mxGeometry x="350" y="20" width="120" height="60" as="geometry" />
        </mxCell>
        <mxCell id="wW48plRAwnufyFm_BIL5-2" value="End" style="ellipse;whiteSpace=wrap;html=1;fillColor=#f8cecc;strokeColor=#b85450;" vertex="1" parent="1">
          <mxGeometry x="350" y="350" width="120" height="60" as="geometry" />
        </mxCell>
        <mxCell id="wW48plRAwnufyFm_BIL5-10" style="edgeStyle=orthogonalEdgeStyle;rounded=0;orthogonalLoop=1;jettySize=auto;html=1;entryX=0.5;entryY=0;entryDx=0;entryDy=0;" edge="1" parent="1" source="wW48plRAwnufyFm_BIL5-3" target="wW48plRAwnufyFm_BIL5-4">
          <mxGeometry relative="1" as="geometry" />
        </mxCell>
        <mxCell id="wW48plRAwnufyFm_BIL5-3" value="Input A" style="shape=parallelogram;perimeter=parallelogramPerimeter;whiteSpace=wrap;html=1;fixedSize=1;fillColor=#dae8fc;strokeColor=#6c8ebf;" vertex="1" parent="1">
          <mxGeometry x="310" y="110" width="200" height="50" as="geometry" />
        </mxCell>
        <mxCell id="wW48plRAwnufyFm_BIL5-11" value="" style="edgeStyle=orthogonalEdgeStyle;rounded=0;orthogonalLoop=1;jettySize=auto;html=1;" edge="1" parent="1" source="wW48plRAwnufyFm_BIL5-4" target="wW48plRAwnufyFm_BIL5-5">
          <mxGeometry relative="1" as="geometry" />
        </mxCell>
        <mxCell id="wW48plRAwnufyFm_BIL5-4" value="B = A x 23000" style="rounded=0;whiteSpace=wrap;html=1;fillColor=#fff2cc;strokeColor=#d6b656;" vertex="1" parent="1">
          <mxGeometry x="310" y="190" width="200" height="50" as="geometry" />
        </mxCell>
        <mxCell id="wW48plRAwnufyFm_BIL5-12" value="" style="edgeStyle=orthogonalEdgeStyle;rounded=0;orthogonalLoop=1;jettySize=auto;html=1;" edge="1" parent="1" source="wW48plRAwnufyFm_BIL5-5" target="wW48plRAwnufyFm_BIL5-2">
          <mxGeometry relative="1" as="geometry" />
        </mxCell>
        <mxCell id="wW48plRAwnufyFm_BIL5-5" value="Output B" style="shape=parallelogram;perimeter=parallelogramPerimeter;whiteSpace=wrap;html=1;fixedSize=1;fillColor=#dae8fc;strokeColor=#6c8ebf;" vertex="1" parent="1">
          <mxGeometry x="310" y="270" width="200" height="50" as="geometry" />
        </mxCell>
        <mxCell id="wW48plRAwnufyFm_BIL5-13" value="&lt;h1 style=&quot;margin-top: 0px;&quot;&gt;Pseudo-code&lt;/h1&gt;&lt;p&gt;BEGIN&lt;/p&gt;&lt;p&gt;&lt;span style=&quot;white-space: pre;&quot;&gt;&#x9;&lt;/span&gt;Input A&lt;/p&gt;&lt;p&gt;&lt;span style=&quot;white-space: pre;&quot;&gt;&#x9;&lt;/span&gt;B = A x 23000&lt;/p&gt;&lt;p&gt;&lt;span style=&quot;white-space: pre;&quot;&gt;&#x9;&lt;/span&gt;Output B&lt;/p&gt;&lt;p&gt;END.&lt;/p&gt;" style="text;html=1;whiteSpace=wrap;overflow=hidden;rounded=0;fillColor=default;" vertex="1" parent="1">
          <mxGeometry x="20" y="20" width="180" height="220" as="geometry" />
        </mxCell>
      </root>
    </mxGraphModel>
  </diagram>
</mxfile>
